<svg width="59" height="60" viewBox="0 0 59 60" fill="none" xmlns="http://www.w3.org/2000/svg">
<path d="M39.2785 54.38V44.9449C39.3697 43.7824 39.213 42.6137 38.8189 41.5166C38.4247 40.4195 37.8021 39.419 36.9924 38.5818C44.6288 37.7285 52.6543 34.8272 52.6543 21.5158C52.6537 18.1119 51.3476 14.8386 49.0063 12.3732C50.115 9.39525 50.0366 6.10357 48.7875 3.18199C48.7875 3.18199 45.9177 2.32869 39.2785 6.79023C33.7045 5.2758 27.8288 5.2758 22.2548 6.79023C15.6155 2.32869 12.7458 3.18199 12.7458 3.18199C11.4967 6.10357 11.4183 9.39525 12.5269 12.3732C10.1682 14.8568 8.86078 18.1598 8.87896 21.5889C8.87896 34.8029 16.9044 37.7041 24.5408 38.6549C23.7407 39.4837 23.1236 40.4722 22.7297 41.5559C22.3359 42.6396 22.174 43.7944 22.2548 44.9449V54.38M22.2548 47.066C10.0949 50.723 10.0949 40.971 5.23102 39.752L22.2548 47.066Z" stroke="#F7FAFC" stroke-width="4" stroke-linecap="round" stroke-linejoin="round"/>
</svg>
