<svg width="59" height="60" viewBox="0 0 59 60" fill="none" xmlns="http://www.w3.org/2000/svg">
<path d="M53.8703 30H5.23102" stroke="#F7FAFC" stroke-width="4" stroke-linecap="round" stroke-linejoin="round"/>
<path d="M13.6213 13.2022L5.23102 30V44.628C5.23102 45.9212 5.74346 47.1614 6.65563 48.0759C7.56779 48.9903 8.80495 49.504 10.0949 49.504H49.0063C50.2963 49.504 51.5335 48.9903 52.4457 48.0759C53.3578 47.1614 53.8703 45.9212 53.8703 44.628V30L45.48 13.2022C45.0773 12.3898 44.4566 11.7062 43.6875 11.2281C42.9185 10.75 42.0317 10.4965 41.1268 10.496H17.9745C17.0696 10.4965 16.1828 10.75 15.4138 11.2281C14.6447 11.7062 14.024 12.3898 13.6213 13.2022V13.2022Z" stroke="#F7FAFC" stroke-width="4" stroke-linecap="round" stroke-linejoin="round"/>
<path d="M14.9589 39.752H14.9832" stroke="#F7FAFC" stroke-width="4" stroke-linecap="round" stroke-linejoin="round"/>
<path d="M24.6867 39.752H24.711" stroke="#F7FAFC" stroke-width="4" stroke-linecap="round" stroke-linejoin="round"/>
</svg>
